<svg width="18" height="18" viewBox="0 0 18 18" fill="none" xmlns="http://www.w3.org/2000/svg">
<path fill-rule="evenodd" clip-rule="evenodd" d="M9.96967 3.21967C10.6076 2.58175 11.4728 2.22336 12.375 2.22336C13.2772 2.22336 14.1424 2.58175 14.7803 3.21967C15.4183 3.85761 15.7766 4.72283 15.7766 5.62501C15.7766 6.52718 15.4183 7.3924 14.7803 8.03032L11.7829 11.0278C11.4692 11.3471 11.0951 11.6009 10.6825 11.7743C10.2685 11.9483 9.82402 12.0379 9.375 12.0379C8.92597 12.0379 8.48152 11.9483 8.06752 11.7743C7.6536 11.6004 7.27852 11.3456 6.96428 11.0249C6.6744 10.729 6.67924 10.2541 6.97511 9.96427C7.27098 9.6744 7.74585 9.67927 8.03572 9.97515C8.21032 10.1533 8.41867 10.2949 8.64862 10.3915C8.87857 10.4881 9.12555 10.5379 9.375 10.5379C9.62445 10.5379 9.87142 10.4881 10.1014 10.3915C10.3313 10.2949 10.5397 10.1533 10.7143 9.97515L10.7197 9.96967L13.7197 6.96967C14.0763 6.61305 14.2766 6.12936 14.2766 5.62501C14.2766 5.12066 14.0763 4.63696 13.7197 4.28034C13.363 3.92371 12.8794 3.72336 12.375 3.72336C11.8706 3.72336 11.3869 3.92371 11.0303 4.28034L10.6553 4.65534C10.3624 4.94823 9.88755 4.94823 9.59467 4.65534C9.3018 4.36244 9.3018 3.88757 9.59467 3.59467L9.96967 3.21967Z" fill="#1E222E"/>
<path fill-rule="evenodd" clip-rule="evenodd" d="M7.31734 6.22564C7.73132 6.05169 8.17577 5.9621 8.62479 5.9621C9.07382 5.9621 9.51827 6.05169 9.93227 6.22564C10.3462 6.39958 10.7213 6.65437 11.0355 6.97509C11.3254 7.27096 11.3205 7.74578 11.0247 8.03573C10.7288 8.3256 10.2539 8.32073 9.96407 8.02485C9.78947 7.84673 9.58112 7.70513 9.35117 7.60853C9.12122 7.51185 8.87424 7.4621 8.62479 7.4621C8.37534 7.4621 8.12837 7.51185 7.89842 7.60853C7.66847 7.70513 7.46009 7.84673 7.28551 8.02485L7.28015 8.03033L4.28012 11.0303C3.92349 11.387 3.72314 11.8706 3.72314 12.375C3.72314 12.8793 3.92349 13.3631 4.28012 13.7197C4.63675 14.0763 5.12044 14.2766 5.62479 14.2766C6.12914 14.2766 6.61283 14.0763 6.96946 13.7197L7.34446 13.3447C7.63734 13.0517 8.11224 13.0517 8.40512 13.3447C8.69799 13.6376 8.69799 14.1125 8.40512 14.4053L8.03012 14.7803C7.39219 15.4183 6.52697 15.7766 5.62479 15.7766C4.72262 15.7766 3.85739 15.4183 3.21946 14.7803C2.58153 14.1424 2.22314 13.2772 2.22314 12.375C2.22314 11.4728 2.58153 10.6076 3.21946 9.96968L6.21691 6.97221C6.53057 6.65284 6.90464 6.39905 7.31734 6.22564Z" fill="#1E222E"/>
</svg>
