<svg width="16" height="16" viewBox="0 0 16 16" fill="none" xmlns="http://www.w3.org/2000/svg">
<g clip-path="url(#clip0_6168_349)">
<path d="M15.2445 3.18216C15.179 2.56089 14.9022 1.98093 14.4604 1.53927C14.0185 1.09761 13.4385 0.821013 12.8172 0.755737C9.61614 0.412537 6.38757 0.412537 3.18651 0.755737C2.56461 0.820278 1.98376 1.09655 1.54126 1.53828C1.09875 1.98 0.821464 2.56036 0.755832 3.18216C0.414072 6.38471 0.414072 9.61454 0.755832 12.8171C0.822057 13.4382 1.09907 14.0178 1.54073 14.4595C1.98239 14.9011 2.56203 15.1781 3.1831 15.2444C6.38416 15.5876 9.61273 15.5876 12.8138 15.2444C13.4355 15.1789 14.0159 14.9022 14.4583 14.4605C14.9006 14.0187 15.1781 13.4387 15.2445 12.8171C15.5862 9.61454 15.5862 6.38471 15.2445 3.18216ZM12.2385 10.6822C12.0203 10.7128 10.9533 10.6822 10.8979 10.6822C10.6214 10.6853 10.3548 10.579 10.1564 10.3864C9.9314 10.1691 9.73026 9.93045 9.51038 9.7046C9.44558 9.63528 9.37517 9.57142 9.29987 9.51369C9.1243 9.37903 8.95044 9.40971 8.86776 9.61682C8.80317 9.84062 8.75812 10.0696 8.73311 10.3012C8.71862 10.51 8.58566 10.6421 8.35044 10.6557C8.2047 10.6643 8.05896 10.6668 7.91492 10.6634C7.38994 10.6598 6.87328 10.5319 6.40725 10.2901C5.90298 10.0094 5.46358 9.62547 5.11776 9.16341C4.5493 8.43727 4.09504 7.63954 3.68935 6.8171C3.66805 6.77534 3.25214 5.89153 3.24191 5.84892C3.20441 5.71 3.24191 5.57619 3.35697 5.52932C3.43026 5.50119 4.80072 5.52932 4.82373 5.52932C4.92566 5.52876 5.02513 5.56055 5.10784 5.62013C5.19054 5.67971 5.25221 5.76399 5.28396 5.86085C5.5373 6.50953 5.88415 7.11767 6.3135 7.66596C6.37362 7.73901 6.44394 7.80302 6.52231 7.85602C6.63396 7.93272 6.73964 7.9063 6.78566 7.77676C6.84027 7.59822 6.87234 7.41354 6.88112 7.22704C6.88879 6.85716 6.88112 6.61426 6.86066 6.24437C6.84703 6.00744 6.7635 5.80034 6.41407 5.73301C6.30668 5.71341 6.29731 5.62477 6.36634 5.53613C6.51038 5.3529 6.70725 5.32307 6.92799 5.31284C7.25697 5.29324 7.58595 5.30602 7.91492 5.31284H7.98651C8.12968 5.31161 8.27256 5.3259 8.41265 5.35545C8.49543 5.37263 8.57051 5.41594 8.62682 5.479C8.68313 5.54206 8.7177 5.62155 8.72544 5.70574C8.74236 5.79906 8.7495 5.89389 8.74674 5.98869C8.73822 6.39182 8.71862 6.79579 8.71436 7.19892C8.71039 7.35887 8.72498 7.51874 8.75782 7.67534C8.8047 7.89096 8.95214 7.9438 9.09873 7.78869C9.2887 7.58891 9.46281 7.37463 9.61947 7.14778C9.89696 6.73341 10.1257 6.28843 10.3013 5.82165C10.3967 5.58216 10.4717 5.52932 10.7274 5.52932H12.1814C12.2679 5.5278 12.354 5.53929 12.4371 5.56341C12.4665 5.57113 12.494 5.58484 12.5178 5.60367C12.5416 5.62251 12.5613 5.64607 12.5757 5.67287C12.59 5.69967 12.5986 5.72914 12.601 5.75944C12.6034 5.78973 12.5996 5.82019 12.5896 5.84892C12.518 6.16852 12.3459 6.43954 12.1635 6.70119C11.8678 7.11966 11.5558 7.5279 11.2533 7.94125C11.2148 7.99583 11.1798 8.05276 11.1484 8.1117C11.0342 8.3171 11.0428 8.43216 11.2081 8.60261C11.4723 8.87449 11.7544 9.12846 12.0092 9.40801C12.1961 9.6114 12.365 9.8307 12.5138 10.0634C12.7004 10.3532 12.5854 10.6293 12.2377 10.6787L12.2385 10.6822Z" fill="#1E222E"/>
</g>
<defs>
<clipPath id="clip0_6168_349">
<rect width="15" height="15" fill="white" transform="translate(0.5 0.5)"/>
</clipPath>
</defs>
</svg>
