<svg width="14" height="14" viewBox="0 0 14 14" fill="none" xmlns="http://www.w3.org/2000/svg">
<g clip-path="url(#clip0_6168_338)">
<path d="M2.95626 7.48945C2.61571 8.15889 3.00237 8.47889 3.88459 9.02556C4.63459 9.48889 5.67071 9.65833 6.33626 9.72611C6.06348 9.98833 7.31348 8.78611 3.71348 12.2489C2.95015 12.9806 4.17904 14.1544 4.94182 13.4383L7.00682 11.4467C7.79737 12.2072 8.55515 12.9361 9.07182 13.4411C9.83515 14.16 11.0635 12.9961 10.3085 12.2517C10.2518 12.1978 7.51015 9.56778 7.67737 9.72889C8.35126 9.66111 9.37182 9.48167 10.1129 9.02833L10.1124 9.02778C10.9946 8.47833 11.3813 8.15889 11.0457 7.48945C10.8429 7.10945 10.2963 6.79167 9.56848 7.34111C9.56848 7.34111 8.58571 8.09389 7.00071 8.09389C5.41515 8.09389 4.43293 7.34111 4.43293 7.34111C3.70571 6.78889 3.15682 7.10945 2.95626 7.48945Z" fill="#1E222E"/>
<path d="M6.99981 7.07888C8.93203 7.07888 10.5098 5.56888 10.5098 3.71C10.5098 1.84333 8.93203 0.333328 6.99981 0.333328C5.06704 0.333328 3.48926 1.84333 3.48926 3.71C3.48926 5.56888 5.06704 7.07888 6.99981 7.07888ZM6.99981 2.04388C7.94926 2.04388 8.7237 2.78888 8.7237 3.71C8.7237 4.62333 7.94926 5.36833 6.99981 5.36833C6.05037 5.36833 5.27592 4.62333 5.27592 3.71C5.27537 2.78833 6.04981 2.04388 6.99981 2.04388Z" fill="#1E222E"/>
</g>
<defs>
<clipPath id="clip0_6168_338">
<rect width="13.3333" height="13.3333" fill="white" transform="translate(0.333496 0.333328)"/>
</clipPath>
</defs>
</svg>
