<svg width="15" height="12" viewBox="0 0 15 12" fill="none" xmlns="http://www.w3.org/2000/svg">
<mask id="mask0_6168_333" style="mask-type:luminance" maskUnits="userSpaceOnUse" x="0" y="0" width="15" height="12">
<path fill-rule="evenodd" clip-rule="evenodd" d="M0.5 0.166672H14.5V11.8333H0.5V0.166672Z" fill="white"/>
</mask>
<g mask="url(#mask0_6168_333)">
<path fill-rule="evenodd" clip-rule="evenodd" d="M14.5 1.10404C14.4265 1.43026 14.3499 1.75582 14.2799 2.0828C13.8275 4.19734 13.3766 6.31221 12.9249 8.42692C12.7304 9.33767 12.5373 10.2487 12.3383 11.1585C12.3124 11.2767 12.2663 11.3941 12.2094 11.5012C12.0573 11.7874 11.8068 11.8954 11.4984 11.7988C11.3578 11.7547 11.2162 11.6903 11.0974 11.6042C10.0912 10.8751 9.09024 10.1388 8.08762 9.40471C8.05133 9.37813 8.01412 9.35276 7.97084 9.32225C7.93757 9.35068 7.90612 9.37503 7.87744 9.40237C7.35983 9.89562 6.84214 10.3888 6.3254 10.8831C6.17144 11.0303 5.99625 11.1189 5.76599 11.1056C5.78505 10.8209 5.80254 10.5453 5.82214 10.2699C5.86321 9.69323 5.90533 9.11665 5.94716 8.54C5.95376 8.44923 5.97744 8.35628 5.96553 8.2681C5.92049 7.93561 6.10739 7.74288 6.33567 7.5394C8.19169 5.88472 10.0388 4.22001 11.8885 2.55826C11.9156 2.53391 11.9508 2.51339 11.9668 2.48299C11.9961 2.42721 12.0139 2.36539 12.0365 2.30608C11.9741 2.28855 11.905 2.24502 11.8505 2.25887C11.7383 2.28734 11.6258 2.33349 11.5274 2.39492C9.11644 3.90076 6.70721 5.40941 4.29823 6.91849C4.23056 6.96089 4.17248 6.98433 4.08561 6.95692C3.0636 6.63423 2.03931 6.31891 1.01738 5.99594C0.893738 5.95686 0.770683 5.89846 0.664901 5.82406C0.466054 5.68423 0.442113 5.47951 0.620008 5.31419C0.750314 5.19309 0.908095 5.08563 1.07276 5.0202C1.93378 4.67801 2.80066 4.35066 3.6659 4.01912C6.95288 2.75981 10.2399 1.50046 13.5278 0.24367C13.6324 0.203681 13.7464 0.177362 13.8579 0.168795C14.1537 0.146121 14.3731 0.306187 14.4635 0.593693C14.4742 0.627558 14.4878 0.660548 14.5 0.693939V1.10404Z" fill="#1E222E"/>
</g>
</svg>
