<svg width="16" height="16" viewBox="0 0 16 16" fill="none" xmlns="http://www.w3.org/2000/svg">
  <path d="M8.33734 8.95864C8.29134 9.25997 8.13734 9.44664 7.82667 9.44664C7.48 9.44664 7.28934 9.19997 7.28934 8.86797V8.7813C7.28934 8.21597 7.57134 7.84264 8.14134 7.5053C8.70667 7.1633 8.898 6.91264 8.898 6.4753C8.898 5.97864 8.51067 5.63197 7.95 5.63197C7.444 5.63197 7.10667 5.88264 6.96067 6.3433C6.86067 6.6253 6.692 6.7393 6.44134 6.7393C6.12667 6.7393 5.94 6.54797 5.94 6.24264C5.94 6.04664 5.98134 5.87797 6.068 5.7053C6.35 5.0853 7.06134 4.70264 8 4.70264C9.23467 4.70264 10.0827 5.40397 10.0827 6.43397C10.0827 7.1313 9.736 7.60997 9.116 7.9793C8.51934 8.32597 8.37334 8.54397 8.33734 8.9593V8.95864Z" fill="currentColor"/>
  <path d="M8.49667 10.7773C8.49667 11.1373 8.20534 11.424 7.836 11.424C7.74976 11.4256 7.66406 11.4101 7.58384 11.3784C7.50362 11.3467 7.43047 11.2994 7.36861 11.2393C7.30676 11.1791 7.25742 11.1074 7.22345 11.0281C7.18947 10.9488 7.17154 10.8636 7.17067 10.7773C7.17067 10.4173 7.46667 10.1346 7.836 10.1346C8.20534 10.1346 8.49667 10.4173 8.49667 10.7773Z" fill="currentColor"/>
  <path fill-rule="evenodd" clip-rule="evenodd" d="M7.99999 14.6667C11.682 14.6667 14.6667 11.682 14.6667 8.00004C14.6667 4.31804 11.682 1.33337 7.99999 1.33337C4.31799 1.33337 1.33333 4.31804 1.33333 8.00004C1.33333 11.682 4.31799 14.6667 7.99999 14.6667ZM13.6667 8.00004C13.6667 9.50293 13.0696 10.9443 12.0069 12.007C10.9442 13.0697 9.50289 13.6667 7.99999 13.6667C6.4971 13.6667 5.05576 13.0697 3.99306 12.007C2.93035 10.9443 2.33333 9.50293 2.33333 8.00004C2.33333 6.49715 2.93035 5.05581 3.99306 3.9931C5.05576 2.9304 6.4971 2.33337 7.99999 2.33337C9.50289 2.33337 10.9442 2.9304 12.0069 3.9931C13.0696 5.05581 13.6667 6.49715 13.6667 8.00004Z" fill="currentColor"/>
</svg>
