<svg width="16" height="16" viewBox="0 0 16 16" fill="none" xmlns="http://www.w3.org/2000/svg">
  <path fill-rule="evenodd" clip-rule="evenodd" d="M4.66667 4.5C4.66667 4.36739 4.71934 4.24021 4.81311 4.14645C4.90688 4.05268 5.03406 4 5.16667 4H11.5C11.6326 4 11.7598 4.05268 11.8536 4.14645C11.9473 4.24021 12 4.36739 12 4.5V10.8333C12 10.9659 11.9473 11.0931 11.8536 11.1869C11.7598 11.2807 11.6326 11.3333 11.5 11.3333C11.3674 11.3333 11.2402 11.2807 11.1464 11.1869C11.0527 11.0931 11 10.9659 11 10.8333V5.70667L4.18667 12.52C4.09188 12.6083 3.96652 12.6564 3.83698 12.6541C3.70745 12.6518 3.58386 12.5994 3.49225 12.5077C3.40064 12.4161 3.34817 12.2925 3.34588 12.163C3.3436 12.0335 3.39168 11.9081 3.48 11.8133L10.2933 5H5.16667C5.03406 5 4.90688 4.94732 4.81311 4.85355C4.71934 4.75979 4.66667 4.63261 4.66667 4.5Z" fill="#476BF0"/>
</svg>
