<svg xmlns="http://www.w3.org/2000/svg" width="24" height="24" fill="none"><path fill="#8F939F" fill-rule="evenodd" d="M12 4.017a4.025 4.025 0 1 0 0 8.05 4.025 4.025 0 0 0 0-8.05ZM6.475 8.042a5.525 5.525 0 1 1 11.05 0 5.525 5.525 0 0 1-11.05 0Z" clip-rule="evenodd"/><path fill="#8F939F" fill-rule="evenodd" d="M12 13.583a7.834 7.834 0 0 0-7.704 6.411L3.988 21.7l-1.476-.267.308-1.71a9.333 9.333 0 0 1 9.18-7.64 9.333 9.333 0 0 1 9.18 7.657v.001l.308 1.709-1.476.267-.308-1.707v-.001A7.833 7.833 0 0 0 12 13.583" clip-rule="evenodd"/></svg>