<svg xmlns="http://www.w3.org/2000/svg">
    <symbol id="icon-logo" viewBox="0 0 170 36" fill="none" xmlns="http://www.w3.org/2000/svg">
        <g clip-path="url(#clip0_3984_3185)">
            <path fill-rule="evenodd" clip-rule="evenodd"
                  d="M0.623721 18C0.623721 8.42405 8.39625 0.616677 17.944 0.616677C27.5037 0.616677 35.2762 8.41241 35.2762 18C35.2762 27.5876 27.5037 35.3833 17.944 35.3833C8.39625 35.3833 0.623721 27.5876 0.623721 18ZM0 18C0 27.925 8.0484 36 17.944 36C27.8396 36 35.888 27.925 35.888 18C35.8999 8.07498 27.8396 0 17.944 0C8.0484 0 0 8.07498 0 18Z"
                  fill="#476BF0"/>
            <path fill-rule="evenodd" clip-rule="evenodd"
                  d="M29.3629 16.1732C29.231 16.2896 29.087 16.406 28.9191 16.5223C27.9236 17.2902 26.3643 17.8953 24.1932 18.4771C19.6832 19.6871 16.4207 19.8733 12.6904 20.7809C11.9707 20.9554 11.215 21.1997 10.5073 21.4906C11.215 21.8397 11.9587 22.1655 12.7264 22.4564C14.2377 22.0259 14.9574 21.8281 17.1524 21.4557C17.98 21.3161 20.5469 20.8623 22.418 20.4667C25.7645 19.757 30.6703 18.2094 29.3629 16.1732ZM27.2039 11.9496C26.4962 11.6238 25.5966 11.3096 24.649 11.0537C24.2292 11.3911 23.7254 11.6936 23.0297 11.9612C24.2052 12.1707 25.1048 12.4965 26.0884 12.7873C26.2803 12.8804 27.0839 12.1241 27.2039 11.9496ZM10.7952 16.4409C15.1733 15.1493 19.7672 14.7537 24.4211 13.5087C22.5979 13.02 21.6024 12.8106 19.6832 13.0317C16.8885 13.3575 13.8179 13.9742 11.191 14.7537C10.1595 15.0562 4.73792 16.6038 6.29723 18.7563C6.29723 18.7912 7.23281 17.488 10.7952 16.4409ZM7.77257 23.8526C7.76057 24.2599 8.01246 24.6089 8.54022 25.0511C8.61219 24.83 8.70815 24.6787 8.86408 24.4693C8.49225 24.2715 8.12041 24.0621 7.77257 23.8526ZM9.82365 23.6432C10.1475 23.4454 10.5433 23.2476 10.9991 23.0731C10.3754 22.8171 9.73969 22.5378 9.09198 22.2353C8.79211 22.4215 8.54022 22.6076 8.32432 22.8171C8.8281 23.0963 9.31988 23.3756 9.82365 23.6432ZM26.6521 14.3116C25.7645 14.7188 24.5051 15.1493 22.6819 15.6031C21.1946 15.9754 17.5722 16.499 13.6739 17.3484C12.4385 17.616 9.10397 18.4072 7.46071 19.8035C7.9165 20.1758 8.20437 20.2689 8.70815 20.5482C9.39184 20.1177 10.3034 19.6988 11.6828 19.3264C14.0698 18.6865 15.857 18.4072 18.004 18.0698C20.139 17.7324 24.1452 16.883 26.3763 16.0918C27.0959 15.8242 27.7676 15.4984 28.2714 15.1028C28.1275 14.9399 26.7001 14.2534 26.6521 14.3116ZM27.9475 13.5204C28.3794 13.7414 28.7752 13.8927 29.159 14.1603C29.4349 13.6367 29.267 13.2993 28.6912 12.8106C28.4753 13.0782 28.2114 13.3109 27.9475 13.5204ZM7.55666 21.4557C7.17284 21.2347 6.89696 21.0834 6.5731 20.8507C6.39318 21.2347 6.72903 21.6652 7.07688 21.863C7.23281 21.7117 7.40073 21.5837 7.55666 21.4557ZM26.1963 9.31998C26.1124 9.6225 25.8005 9.95993 25.5726 10.2043C26.2323 10.3788 26.892 10.6231 27.5277 10.8559C27.4558 10.2741 26.7721 9.70395 26.1963 9.31998ZM5.58954 13.0666C10.1715 10.053 15.2452 8.29606 23.8454 9.7854C24.3252 9.50615 24.5891 9.25017 24.709 8.68003C22.562 7.90046 20.235 7.63284 17.2243 7.67939C14.5136 7.7492 9.64373 8.76148 7.05289 10.309L7.84454 9.31998C9.66772 8.24952 14.4056 6.83 17.956 6.76019C20.4629 6.71365 21.7583 6.85327 24.733 7.65612C24.4811 7.14416 23.8574 6.88818 22.9578 6.48094C20.0791 5.17777 14.6935 5.06142 10.2794 7.00453C10.8432 6.64383 11.383 6.29477 12.1026 5.96898C13.554 5.30576 15.9409 4.65418 18.9156 4.70072C21.2905 4.73562 24.1213 5.57337 25.8485 7.29542C26.1364 7.63284 26.3043 7.99354 26.3763 8.28443C27.7436 8.98255 28.5353 9.63414 28.9911 10.4021C29.171 10.786 29.255 11.2282 29.171 11.7052C29.7347 12.0543 30.0106 12.3336 30.2865 12.7059C30.4904 13.02 30.6463 13.3807 30.6823 13.7065C30.7303 14.137 30.7783 14.6257 30.3345 15.1842C30.8143 15.4169 31.1741 16.0685 31.2341 16.3594C31.45 17.395 30.7903 18.3956 29.9027 19.1868C28.8951 20.0711 26.6761 21.1183 24.8649 21.5837C21.2665 22.4913 18.1 22.8752 15.5691 23.3407C16.6966 23.6083 18.2319 23.9806 20.7508 23.9806C26.1124 23.9806 30.8503 21.4325 30.8503 21.4325C30.8503 21.4325 30.7423 21.7699 30.6343 22.0608C27.2279 24.1319 21.8063 25.0045 19.5033 24.8998C17.1524 24.7951 15.1733 24.446 13.2421 23.841C12.6424 24.0039 12.0666 24.1901 11.5029 24.4344C14.4536 25.7725 16.6726 26.075 19.1915 26.2612C21.7583 26.4473 26.0044 25.8306 29.6028 24.5275C29.4349 24.6904 29.3509 24.9464 29.183 25.1093C27.3478 26.075 23.4616 27.0524 21.5064 27.1222C19.5633 27.2036 17.2004 27.1338 15.1373 26.7382C13.3621 26.4008 11.9227 25.8306 10.3994 25.1674C10.1235 25.3652 9.97958 25.6328 9.9316 25.9237C15.833 29.0188 21.3745 29.0886 27.6717 27.1222L27.0959 27.6807C20.163 30.4965 14.7415 29.4027 10.5553 27.3782C10.4234 27.32 10.2555 27.2502 10.1355 27.1687C10.5193 27.8436 13.7219 30.1939 17.3083 30.4848C19.7792 30.6826 22.7899 30.2637 24.5771 29.5423L23.5335 30.0892C22.6699 30.5197 20.3789 31.4855 17.1644 31.276C12.8943 30.9851 10.4834 29.0886 9.40384 28.0996C8.90006 27.6341 8.67217 27.0989 8.51623 26.4357C7.54467 25.9237 6.94494 25.4001 6.44116 24.6206C6.1413 24.1551 6.20127 23.6432 6.27324 23.201C6.29723 23.0614 6.33321 22.9334 6.38119 22.8054C5.9134 22.468 5.44561 22.1073 5.2417 21.7466C4.82189 20.9787 5.07377 20.3271 5.37364 19.8151C5.12175 19.5242 4.88186 19.2334 4.77391 18.9425C4.66596 18.6167 4.64197 18.2793 4.67795 17.9069C4.76191 17.267 5.09776 16.6736 5.54156 16.1616C6.47715 15.0795 7.94049 14.2418 10.4594 13.404C12.9183 12.5895 13.9138 12.4615 15.773 12.031C17.944 11.5307 20.5349 11.3678 22.7059 10.6115C16.6486 9.55269 10.3634 10.5184 5.2417 14.0556L5.58954 13.0666Z"
                  fill="#476BF0"/>
            <path d="M58.4979 14.8701L59.1816 19.6755H57.8022L58.4979 14.8701ZM53.0763 25.8656H56.7826L57.2264 23.1429H59.7693L60.2131 25.8656H63.9075L60.7888 10.1112H56.2069L53.0763 25.8656Z"
                  fill="#476BF0"/>
            <path d="M67.4098 16.2081C67.9976 16.2081 69.0891 15.8242 69.0891 14.6606C69.0891 13.2876 67.8296 13.2062 67.4818 13.2062C67.062 13.2062 66.2703 13.2644 65.4787 13.6483L65.4307 10.2391C66.6662 9.91336 67.5658 9.83191 68.6093 9.83191C71.584 9.83191 72.9274 11.9263 72.9274 13.9625C72.9274 15.9521 71.7759 17.1622 70.6724 17.6276V17.7789C71.7279 18.1163 73.1673 19.1519 73.1673 21.5604C73.1673 24.5274 71.0922 26.168 68.4534 26.168C67.038 26.168 66.1144 25.9586 64.9989 25.3536L65.0589 22.084C66.0784 22.5262 66.7741 22.5611 67.4818 22.5611C68.6453 22.5611 69.1251 21.7 69.1251 21.0601C69.1251 20.1758 68.5613 19.5824 67.3259 19.5824H65.8505V16.2081H67.4098Z"
                  fill="#476BF0"/>
            <path d="M74.8826 10.1112H84.8261V25.8656H81.1798V13.8927H78.5289V25.8656H74.8826V10.1112Z" fill="#476BF0"/>
            <path d="M90.5595 13.5786H91.4231C92.2507 13.5786 92.7665 14.0789 92.7665 15.3821C92.7665 17.0925 91.8909 17.2088 91.4231 17.2088H90.5595V13.5786ZM86.9131 25.8656H90.5595V20.6646H91.7829C95.3933 20.6646 96.5088 17.4183 96.5088 15.3472C96.5088 13.311 95.2374 10.0996 91.7829 10.1112H86.9131V25.8656Z"
                  fill="#476BF0"/>
            <path d="M103.25 22.2469C101.966 22.2469 101.307 20.7459 101.307 17.965C101.307 15.1842 101.966 13.6832 103.25 13.6832C104.533 13.6832 105.205 15.1842 105.205 17.965C105.205 20.7459 104.533 22.2469 103.25 22.2469ZM103.25 26.0517C107.568 26.0517 109.031 22.0142 109.031 17.965C109.031 13.9275 107.568 9.87842 103.25 9.87842C98.9317 9.87842 97.4684 13.9275 97.4684 17.965C97.4804 22.0142 98.9317 26.0517 103.25 26.0517Z"
                  fill="#476BF0"/>
            <path d="M128.475 22.7124V19.1287H129.002C129.434 19.1287 130.586 19.1519 130.586 20.7693C130.586 22.4331 129.434 22.7124 129.002 22.7124H128.475ZM124.912 25.8656H129.266C130.202 25.8656 134.148 25.47 134.16 20.6994C134.16 16.6736 131.101 15.9755 129.134 15.9755H128.487V13.8927H133.308V10.1112H124.912V25.8656Z"
                  fill="#476BF0"/>
            <path d="M147.27 10.1112H150.845V15.7777H153.387V10.1112H156.962V25.8656H153.387V19.5592H150.845V25.8656H147.27V10.1112Z"
                  fill="#476BF0"/>
            <path d="M159.349 10.1112H162.923L162.911 15.7777H163.691L165.73 10.1112H169.616L166.833 17.5811L170 25.8656H165.802L163.763 19.5243H162.911L162.923 25.8656H159.349V10.1112Z"
                  fill="#476BF0"/>
            <path d="M46.0234 10.1112H53.4961V14.0323H49.7298V25.8656H46.0234V10.1112Z" fill="#476BF0"/>
            <path d="M110.782 10.1112H113.877L116.612 13.8229L119.359 10.1112H122.453V25.8656H118.807V16.2547L116.612 19.0123L114.429 16.2547V25.8656H110.782V10.1112Z"
                  fill="#476BF0"/>
            <path d="M140.289 14.8933L140.973 19.6987H139.594L140.289 14.8933ZM134.868 25.8888H138.562L139.006 23.1661H141.549L141.992 25.8888H145.687L142.556 10.1344H137.974L134.868 25.8888Z"
                  fill="#476BF0"/>
        </g>
        <defs>
            <clipPath id="clip0_3984_3185">
                <rect width="170" height="36" fill="#476BF0"/>
            </clipPath>
        </defs>
    </symbol>
    <symbol xmlns="http://www.w3.org/2000/svg" id="icon-jackdaw" fill="none">
        <g clip-path="url(#a)">
            <path fill="#fff"
                  d="M11.721 1.961a.952.952 0 0 0-1.346 0L4.317 8.02 1.625 5.327A.952.952 0 1 0 .279 6.673l3.365 3.366a.949.949 0 0 0 1.346 0l6.731-6.731a.952.952 0 0 0 0-1.347Z"/>
        </g>
        <defs>
            <clipPath id="a">
                <path fill="#fff" d="M0 0h12v12H0z"/>
            </clipPath>
        </defs>
    </symbol>
    <symbol id="icon-arrow" viewBox="0 0 5 10" fill="none" xmlns="http://www.w3.org/2000/svg">
        <g clip-path="url(#clip0_6168_393)">
            <path d="M1 9L4 5L1 1" stroke="currentColor" stroke-width="1.5" stroke-linecap="round"/>
        </g>
        <defs>
            <clipPath id="clip0_6168_393">
                <rect width="10" height="5" fill="white" transform="matrix(0 -1 1 0 0 10)"/>
            </clipPath>
        </defs>
    </symbol>
    <symbol id="icon-loc" viewBox="0 0 16 16" fill="none" xmlns="http://www.w3.org/2000/svg">
        <path fill-rule="evenodd" clip-rule="evenodd"
              d="M13.6869 2.31309C13.8296 2.45582 13.8725 2.67037 13.7957 2.85702L9.12901 14.1903C9.05236 14.3765 8.87154 14.4985 8.67024 14.5C8.46893 14.5014 8.28639 14.382 8.20709 14.1969L6.28588 9.7141L1.80304 7.79288C1.61801 7.71358 1.49858 7.53104 1.50001 7.32974C1.50145 7.12843 1.62348 6.94762 1.80963 6.87097L13.143 2.2043C13.3296 2.12745 13.5442 2.17036 13.6869 2.31309ZM3.29081 7.34253L6.86363 8.87373C6.98163 8.92431 7.07566 9.01834 7.12624 9.13635L8.65745 12.7092L12.4141 3.58588L3.29081 7.34253Z"
              fill="currentColor"/>
    </symbol>
    <symbol id="icon-tg" viewBox="0 0 15 12" fill="none" xmlns="http://www.w3.org/2000/svg">
        <mask id="mask0_6168_333" style="mask-type:luminance" maskUnits="userSpaceOnUse" x="0" y="0" width="15"
              height="12">
            <path fill-rule="evenodd" clip-rule="evenodd" d="M0.5 0.166672H14.5V11.8333H0.5V0.166672Z" fill="white"/>
        </mask>
        <g mask="url(#mask0_6168_333)">
            <path fill-rule="evenodd" clip-rule="evenodd"
                  d="M14.5 1.10404C14.4265 1.43026 14.3499 1.75582 14.2799 2.0828C13.8275 4.19734 13.3766 6.31221 12.9249 8.42692C12.7304 9.33767 12.5373 10.2487 12.3383 11.1585C12.3124 11.2767 12.2663 11.3941 12.2094 11.5012C12.0573 11.7874 11.8068 11.8954 11.4984 11.7988C11.3578 11.7547 11.2162 11.6903 11.0974 11.6042C10.0912 10.8751 9.09024 10.1388 8.08762 9.40471C8.05133 9.37813 8.01412 9.35276 7.97084 9.32225C7.93757 9.35068 7.90612 9.37503 7.87744 9.40237C7.35983 9.89562 6.84214 10.3888 6.3254 10.8831C6.17144 11.0303 5.99625 11.1189 5.76599 11.1056C5.78505 10.8209 5.80254 10.5453 5.82214 10.2699C5.86321 9.69323 5.90533 9.11665 5.94716 8.54C5.95376 8.44923 5.97744 8.35628 5.96553 8.2681C5.92049 7.93561 6.10739 7.74288 6.33567 7.5394C8.19169 5.88472 10.0388 4.22001 11.8885 2.55826C11.9156 2.53391 11.9508 2.51339 11.9668 2.48299C11.9961 2.42721 12.0139 2.36539 12.0365 2.30608C11.9741 2.28855 11.905 2.24502 11.8505 2.25887C11.7383 2.28734 11.6258 2.33349 11.5274 2.39492C9.11644 3.90076 6.70721 5.40941 4.29823 6.91849C4.23056 6.96089 4.17248 6.98433 4.08561 6.95692C3.0636 6.63423 2.03931 6.31891 1.01738 5.99594C0.893738 5.95686 0.770683 5.89846 0.664901 5.82406C0.466054 5.68423 0.442113 5.47951 0.620008 5.31419C0.750314 5.19309 0.908095 5.08563 1.07276 5.0202C1.93378 4.67801 2.80066 4.35066 3.6659 4.01912C6.95288 2.75981 10.2399 1.50046 13.5278 0.24367C13.6324 0.203681 13.7464 0.177362 13.8579 0.168795C14.1537 0.146121 14.3731 0.306187 14.4635 0.593693C14.4742 0.627558 14.4878 0.660548 14.5 0.693939V1.10404Z"
                  fill="#1E222E"/>
        </g>
    </symbol>
    <symbol id="icon-vk" viewBox="0 0 16 16" fill="none" xmlns="http://www.w3.org/2000/svg">
        <g clip-path="url(#clip0_6168_349)">
            <path d="M15.2445 3.18216C15.179 2.56089 14.9022 1.98093 14.4604 1.53927C14.0185 1.09761 13.4385 0.821013 12.8172 0.755737C9.61614 0.412537 6.38757 0.412537 3.18651 0.755737C2.56461 0.820278 1.98376 1.09655 1.54126 1.53828C1.09875 1.98 0.821464 2.56036 0.755832 3.18216C0.414072 6.38471 0.414072 9.61454 0.755832 12.8171C0.822057 13.4382 1.09907 14.0178 1.54073 14.4595C1.98239 14.9011 2.56203 15.1781 3.1831 15.2444C6.38416 15.5876 9.61273 15.5876 12.8138 15.2444C13.4355 15.1789 14.0159 14.9022 14.4583 14.4605C14.9006 14.0187 15.1781 13.4387 15.2445 12.8171C15.5862 9.61454 15.5862 6.38471 15.2445 3.18216ZM12.2385 10.6822C12.0203 10.7128 10.9533 10.6822 10.8979 10.6822C10.6214 10.6853 10.3548 10.579 10.1564 10.3864C9.9314 10.1691 9.73026 9.93045 9.51038 9.7046C9.44558 9.63528 9.37517 9.57142 9.29987 9.51369C9.1243 9.37903 8.95044 9.40971 8.86776 9.61682C8.80317 9.84062 8.75812 10.0696 8.73311 10.3012C8.71862 10.51 8.58566 10.6421 8.35044 10.6557C8.2047 10.6643 8.05896 10.6668 7.91492 10.6634C7.38994 10.6598 6.87328 10.5319 6.40725 10.2901C5.90298 10.0094 5.46358 9.62547 5.11776 9.16341C4.5493 8.43727 4.09504 7.63954 3.68935 6.8171C3.66805 6.77534 3.25214 5.89153 3.24191 5.84892C3.20441 5.71 3.24191 5.57619 3.35697 5.52932C3.43026 5.50119 4.80072 5.52932 4.82373 5.52932C4.92566 5.52876 5.02513 5.56055 5.10784 5.62013C5.19054 5.67971 5.25221 5.76399 5.28396 5.86085C5.5373 6.50953 5.88415 7.11767 6.3135 7.66596C6.37362 7.73901 6.44394 7.80302 6.52231 7.85602C6.63396 7.93272 6.73964 7.9063 6.78566 7.77676C6.84027 7.59822 6.87234 7.41354 6.88112 7.22704C6.88879 6.85716 6.88112 6.61426 6.86066 6.24437C6.84703 6.00744 6.7635 5.80034 6.41407 5.73301C6.30668 5.71341 6.29731 5.62477 6.36634 5.53613C6.51038 5.3529 6.70725 5.32307 6.92799 5.31284C7.25697 5.29324 7.58595 5.30602 7.91492 5.31284H7.98651C8.12968 5.31161 8.27256 5.3259 8.41265 5.35545C8.49543 5.37263 8.57051 5.41594 8.62682 5.479C8.68313 5.54206 8.7177 5.62155 8.72544 5.70574C8.74236 5.79906 8.7495 5.89389 8.74674 5.98869C8.73822 6.39182 8.71862 6.79579 8.71436 7.19892C8.71039 7.35887 8.72498 7.51874 8.75782 7.67534C8.8047 7.89096 8.95214 7.9438 9.09873 7.78869C9.2887 7.58891 9.46281 7.37463 9.61947 7.14778C9.89696 6.73341 10.1257 6.28843 10.3013 5.82165C10.3967 5.58216 10.4717 5.52932 10.7274 5.52932H12.1814C12.2679 5.5278 12.354 5.53929 12.4371 5.56341C12.4665 5.57113 12.494 5.58484 12.5178 5.60367C12.5416 5.62251 12.5613 5.64607 12.5757 5.67287C12.59 5.69967 12.5986 5.72914 12.601 5.75944C12.6034 5.78973 12.5996 5.82019 12.5896 5.84892C12.518 6.16852 12.3459 6.43954 12.1635 6.70119C11.8678 7.11966 11.5558 7.5279 11.2533 7.94125C11.2148 7.99583 11.1798 8.05276 11.1484 8.1117C11.0342 8.3171 11.0428 8.43216 11.2081 8.60261C11.4723 8.87449 11.7544 9.12846 12.0092 9.40801C12.1961 9.6114 12.365 9.8307 12.5138 10.0634C12.7004 10.3532 12.5854 10.6293 12.2377 10.6787L12.2385 10.6822Z"
                  fill="#1E222E"/>
        </g>
        <defs>
            <clipPath id="clip0_6168_349">
                <rect width="15" height="15" fill="white" transform="translate(0.5 0.5)"/>
            </clipPath>
        </defs>
    </symbol>
    <symbol id="icon-ok" viewBox="0 0 14 14" fill="none" xmlns="http://www.w3.org/2000/svg">
        <g clip-path="url(#clip0_6168_338)">
            <path d="M2.95626 7.48945C2.61571 8.15889 3.00237 8.47889 3.88459 9.02556C4.63459 9.48889 5.67071 9.65833 6.33626 9.72611C6.06348 9.98833 7.31348 8.78611 3.71348 12.2489C2.95015 12.9806 4.17904 14.1544 4.94182 13.4383L7.00682 11.4467C7.79737 12.2072 8.55515 12.9361 9.07182 13.4411C9.83515 14.16 11.0635 12.9961 10.3085 12.2517C10.2518 12.1978 7.51015 9.56778 7.67737 9.72889C8.35126 9.66111 9.37182 9.48167 10.1129 9.02833L10.1124 9.02778C10.9946 8.47833 11.3813 8.15889 11.0457 7.48945C10.8429 7.10945 10.2963 6.79167 9.56848 7.34111C9.56848 7.34111 8.58571 8.09389 7.00071 8.09389C5.41515 8.09389 4.43293 7.34111 4.43293 7.34111C3.70571 6.78889 3.15682 7.10945 2.95626 7.48945Z"
                  fill="#1E222E"/>
            <path d="M6.99981 7.07888C8.93203 7.07888 10.5098 5.56888 10.5098 3.71C10.5098 1.84333 8.93203 0.333328 6.99981 0.333328C5.06704 0.333328 3.48926 1.84333 3.48926 3.71C3.48926 5.56888 5.06704 7.07888 6.99981 7.07888ZM6.99981 2.04388C7.94926 2.04388 8.7237 2.78888 8.7237 3.71C8.7237 4.62333 7.94926 5.36833 6.99981 5.36833C6.05037 5.36833 5.27592 4.62333 5.27592 3.71C5.27537 2.78833 6.04981 2.04388 6.99981 2.04388Z"
                  fill="#1E222E"/>
        </g>
        <defs>
            <clipPath id="clip0_6168_338">
                <rect width="13.3333" height="13.3333" fill="white" transform="translate(0.333496 0.333328)"/>
            </clipPath>
        </defs>
    </symbol>
    <symbol id="icon-link" viewBox="0 0 18 18" fill="none" xmlns="http://www.w3.org/2000/svg">
        <path fill-rule="evenodd" clip-rule="evenodd"
              d="M9.96967 3.21967C10.6076 2.58175 11.4728 2.22336 12.375 2.22336C13.2772 2.22336 14.1424 2.58175 14.7803 3.21967C15.4183 3.85761 15.7766 4.72283 15.7766 5.62501C15.7766 6.52718 15.4183 7.3924 14.7803 8.03032L11.7829 11.0278C11.4692 11.3471 11.0951 11.6009 10.6825 11.7743C10.2685 11.9483 9.82402 12.0379 9.375 12.0379C8.92597 12.0379 8.48152 11.9483 8.06752 11.7743C7.6536 11.6004 7.27852 11.3456 6.96428 11.0249C6.6744 10.729 6.67924 10.2541 6.97511 9.96427C7.27098 9.6744 7.74585 9.67927 8.03572 9.97515C8.21032 10.1533 8.41867 10.2949 8.64862 10.3915C8.87857 10.4881 9.12555 10.5379 9.375 10.5379C9.62445 10.5379 9.87142 10.4881 10.1014 10.3915C10.3313 10.2949 10.5397 10.1533 10.7143 9.97515L10.7197 9.96967L13.7197 6.96967C14.0763 6.61305 14.2766 6.12936 14.2766 5.62501C14.2766 5.12066 14.0763 4.63696 13.7197 4.28034C13.363 3.92371 12.8794 3.72336 12.375 3.72336C11.8706 3.72336 11.3869 3.92371 11.0303 4.28034L10.6553 4.65534C10.3624 4.94823 9.88755 4.94823 9.59467 4.65534C9.3018 4.36244 9.3018 3.88757 9.59467 3.59467L9.96967 3.21967Z"
              fill="#1E222E"/>
        <path fill-rule="evenodd" clip-rule="evenodd"
              d="M7.31734 6.22564C7.73132 6.05169 8.17577 5.9621 8.62479 5.9621C9.07382 5.9621 9.51827 6.05169 9.93227 6.22564C10.3462 6.39958 10.7213 6.65437 11.0355 6.97509C11.3254 7.27096 11.3205 7.74578 11.0247 8.03573C10.7288 8.3256 10.2539 8.32073 9.96407 8.02485C9.78947 7.84673 9.58112 7.70513 9.35117 7.60853C9.12122 7.51185 8.87424 7.4621 8.62479 7.4621C8.37534 7.4621 8.12837 7.51185 7.89842 7.60853C7.66847 7.70513 7.46009 7.84673 7.28551 8.02485L7.28015 8.03033L4.28012 11.0303C3.92349 11.387 3.72314 11.8706 3.72314 12.375C3.72314 12.8793 3.92349 13.3631 4.28012 13.7197C4.63675 14.0763 5.12044 14.2766 5.62479 14.2766C6.12914 14.2766 6.61283 14.0763 6.96946 13.7197L7.34446 13.3447C7.63734 13.0517 8.11224 13.0517 8.40512 13.3447C8.69799 13.6376 8.69799 14.1125 8.40512 14.4053L8.03012 14.7803C7.39219 15.4183 6.52697 15.7766 5.62479 15.7766C4.72262 15.7766 3.85739 15.4183 3.21946 14.7803C2.58153 14.1424 2.22314 13.2772 2.22314 12.375C2.22314 11.4728 2.58153 10.6076 3.21946 9.96968L6.21691 6.97221C6.53057 6.65284 6.90464 6.39905 7.31734 6.22564Z"
              fill="#1E222E"/>
    </symbol>
    <symbol id="icon-eye-closed" xmlns="http://www.w3.org/2000/svg" fill="none">
        <path fill="currentColor" fill-rule="evenodd"
              d="M20.53 4.53a.75.75 0 0 0-1.06-1.06l-16 16a.75.75 0 1 0 1.06 1.06l2.847-2.847c1.367.644 2.94 1.067 4.623 1.067 2.684 0 5.09-1.077 6.82-2.405.867-.665 1.583-1.407 2.089-2.136.492-.709.841-1.486.841-2.209 0-.723-.35-1.5-.841-2.209-.506-.729-1.222-1.47-2.088-2.136-.263-.201-.54-.397-.832-.583L20.53 4.53ZM16.9 8.161l-1.771 1.771a3.75 3.75 0 0 1-5.197 5.197l-1.417 1.416A9.25 9.25 0 0 0 12 17.25c2.287 0 4.38-.923 5.907-2.095.762-.585 1.364-1.218 1.77-1.801.419-.604.573-1.077.573-1.354 0-.277-.154-.75-.573-1.354-.406-.583-1.008-1.216-1.77-1.801-.313-.24-.65-.47-1.008-.684Zm-5.87 5.87a2.25 2.25 0 0 0 3-3l-3 3Z"
              clip-rule="evenodd"/>
        <path fill="currentColor"
              d="M12 5.25c1.032 0 2.024.16 2.951.431a.243.243 0 0 1 .1.407l-.824.825a.254.254 0 0 1-.237.067A8.872 8.872 0 0 0 12 6.75c-2.287 0-4.38.923-5.907 2.095-.762.585-1.364 1.218-1.77 1.801-.419.604-.573 1.077-.573 1.354 0 .277.154.75.573 1.354.354.51.858 1.057 1.488 1.577.116.095.127.27.02.377l-.708.709a.246.246 0 0 1-.333.016 9.52 9.52 0 0 1-1.699-1.824C2.6 13.5 2.25 12.723 2.25 12c0-.723.35-1.5.841-2.209.506-.729 1.222-1.47 2.088-2.136C6.91 6.327 9.316 5.25 12 5.25Z"/>
        <path fill="currentColor"
              d="M12 8.25c.118 0 .236.005.351.016.197.019.268.254.129.394l-1.213 1.212a2.256 2.256 0 0 0-1.395 1.395L8.66 12.48c-.14.14-.375.068-.394-.129A3.75 3.75 0 0 1 12 8.25Z"/>
    </symbol>
    <symbol id="icon-user" xmlns="http://www.w3.org/2000/svg" fill="none">
        <path fill="currentColor" fill-rule="evenodd"
              d="M12 4.017a4.025 4.025 0 1 0 0 8.05 4.025 4.025 0 0 0 0-8.05ZM6.475 8.042a5.525 5.525 0 1 1 11.05 0 5.525 5.525 0 0 1-11.05 0Z"
              clip-rule="evenodd"/>
        <path fill="currentColor" fill-rule="evenodd"
              d="M12 13.583a7.834 7.834 0 0 0-7.704 6.411L3.988 21.7l-1.476-.267.308-1.71a9.333 9.333 0 0 1 9.18-7.64 9.333 9.333 0 0 1 9.18 7.657v.001l.308 1.709-1.476.267-.308-1.707v-.001A7.833 7.833 0 0 0 12 13.583"
              clip-rule="evenodd"/>
    </symbol>
    <symbol id="icon-arrow-right" viewBox="0 0 20 20" fill="none" xmlns="http://www.w3.org/2000/svg">
        <path fill-rule="evenodd" clip-rule="evenodd"
              d="M15.3446 9.30907L11.0706 4.94511L12.1238 4L18.0001 10L12.1238 16L11.0706 15.0549L15.3446 10.6909H3V9.30907L15.3446 9.30907Z"
              fill="#1E222E" />
    </symbol>
    <symbol xmlns="http://www.w3.org/2000/svg" viewBox="0 0 16 16" fill="none" id="icon-arrow-diagonal">
        <path fill-rule="evenodd" clip-rule="evenodd" d="M4.66667 4.5C4.66667 4.36739 4.71934 4.24021 4.81311 4.14645C4.90688 4.05268 5.03406 4 5.16667 4H11.5C11.6326 4 11.7598 4.05268 11.8536 4.14645C11.9473 4.24021 12 4.36739 12 4.5V10.8333C12 10.9659 11.9473 11.0931 11.8536 11.1869C11.7598 11.2807 11.6326 11.3333 11.5 11.3333C11.3674 11.3333 11.2402 11.2807 11.1464 11.1869C11.0527 11.0931 11 10.9659 11 10.8333V5.70667L4.18667 12.52C4.09188 12.6083 3.96652 12.6564 3.83698 12.6541C3.70745 12.6518 3.58386 12.5994 3.49225 12.5077C3.40064 12.4161 3.34817 12.2925 3.34588 12.163C3.3436 12.0335 3.39168 11.9081 3.48 11.8133L10.2933 5H5.16667C5.03406 5 4.90688 4.94732 4.81311 4.85355C4.71934 4.75979 4.66667 4.63261 4.66667 4.5Z" fill="currentColor"/>
    </symbol>
    <symbol xmlns="http://www.w3.org/2000/svg" viewBox="0 0 16 16" fill="none" id="icon-question">
        <path d="M8.33734 8.95864C8.29134 9.25997 8.13734 9.44664 7.82667 9.44664C7.48 9.44664 7.28934 9.19997 7.28934 8.86797V8.7813C7.28934 8.21597 7.57134 7.84264 8.14134 7.5053C8.70667 7.1633 8.898 6.91264 8.898 6.4753C8.898 5.97864 8.51067 5.63197 7.95 5.63197C7.444 5.63197 7.10667 5.88264 6.96067 6.3433C6.86067 6.6253 6.692 6.7393 6.44134 6.7393C6.12667 6.7393 5.94 6.54797 5.94 6.24264C5.94 6.04664 5.98134 5.87797 6.068 5.7053C6.35 5.0853 7.06134 4.70264 8 4.70264C9.23467 4.70264 10.0827 5.40397 10.0827 6.43397C10.0827 7.1313 9.736 7.60997 9.116 7.9793C8.51934 8.32597 8.37334 8.54397 8.33734 8.9593V8.95864Z" fill="currentColor"/>
        <path d="M8.49667 10.7773C8.49667 11.1373 8.20534 11.424 7.836 11.424C7.74976 11.4256 7.66406 11.4101 7.58384 11.3784C7.50362 11.3467 7.43047 11.2994 7.36861 11.2393C7.30676 11.1791 7.25742 11.1074 7.22345 11.0281C7.18947 10.9488 7.17154 10.8636 7.17067 10.7773C7.17067 10.4173 7.46667 10.1346 7.836 10.1346C8.20534 10.1346 8.49667 10.4173 8.49667 10.7773Z" fill="currentColor"/>
        <path fill-rule="evenodd" clip-rule="evenodd" d="M7.99999 14.6667C11.682 14.6667 14.6667 11.682 14.6667 8.00004C14.6667 4.31804 11.682 1.33337 7.99999 1.33337C4.31799 1.33337 1.33333 4.31804 1.33333 8.00004C1.33333 11.682 4.31799 14.6667 7.99999 14.6667ZM13.6667 8.00004C13.6667 9.50293 13.0696 10.9443 12.0069 12.007C10.9442 13.0697 9.50289 13.6667 7.99999 13.6667C6.4971 13.6667 5.05576 13.0697 3.99306 12.007C2.93035 10.9443 2.33333 9.50293 2.33333 8.00004C2.33333 6.49715 2.93035 5.05581 3.99306 3.9931C5.05576 2.9304 6.4971 2.33337 7.99999 2.33337C9.50289 2.33337 10.9442 2.9304 12.0069 3.9931C13.0696 5.05581 13.6667 6.49715 13.6667 8.00004Z" fill="currentColor"/>
    </symbol>

</svg>
